<svg width="100%" viewBox="0 0 680 320" xmlns="http://www.w3.org/2000/svg">
  <defs>
    <style>
      .bg-card { fill: #0f111a; }
      .wm-view { fill: #00e5a0; }
      .block-bg { fill: #1a1f35; }
      .block-border { stroke: #2e3555; }
      .letter-p { fill: #e8eaf6; }
      .letter-g { fill: #00e5a0; }
      .pip { fill: #00e5a0; }
      .pip-dim { fill: #2a3550; }
      .scanline { stroke: #ffffff; opacity: 0.025; }
      .cursor-bar { fill: #00e5a0; }
      .prompt-sym { fill: #00e5a0; }
      .prompt-txt { fill: #4a6070; }
      .row-sel { fill: #00e5a0; }
      .row-hi  { fill: #e8eaf6; }
      .divider { stroke: #2e3555; }
      .bracket { stroke: #2e3555; }
      .badge   { fill: #4a6070; }
      .blink { animation: bl 1.1s step-end infinite; }
      @keyframes bl { 0%,100%{opacity:1} 50%{opacity:0} }
    </style>
  </defs>

  <!-- Card -->
  <rect x="140" y="20" width="400" height="280" rx="16" class="bg-card"/>

  <!-- Scanlines -->
  <g>
    <line x1="140" y1="28"  x2="540" y2="28"  class="scanline" stroke-width="1"/>
    <line x1="140" y1="32"  x2="540" y2="32"  class="scanline" stroke-width="1"/>
    <line x1="140" y1="36"  x2="540" y2="36"  class="scanline" stroke-width="1"/>
    <line x1="140" y1="40"  x2="540" y2="40"  class="scanline" stroke-width="1"/>
    <line x1="140" y1="44"  x2="540" y2="44"  class="scanline" stroke-width="1"/>
    <line x1="140" y1="48"  x2="540" y2="48"  class="scanline" stroke-width="1"/>
    <line x1="140" y1="52"  x2="540" y2="52"  class="scanline" stroke-width="1"/>
    <line x1="140" y1="56"  x2="540" y2="56"  class="scanline" stroke-width="1"/>
    <line x1="140" y1="60"  x2="540" y2="60"  class="scanline" stroke-width="1"/>
    <line x1="140" y1="64"  x2="540" y2="64"  class="scanline" stroke-width="1"/>
    <line x1="140" y1="68"  x2="540" y2="68"  class="scanline" stroke-width="1"/>
    <line x1="140" y1="72"  x2="540" y2="72"  class="scanline" stroke-width="1"/>
    <line x1="140" y1="76"  x2="540" y2="76"  class="scanline" stroke-width="1"/>
    <line x1="140" y1="80"  x2="540" y2="80"  class="scanline" stroke-width="1"/>
    <line x1="140" y1="84"  x2="540" y2="84"  class="scanline" stroke-width="1"/>
    <line x1="140" y1="88"  x2="540" y2="88"  class="scanline" stroke-width="1"/>
    <line x1="140" y1="92"  x2="540" y2="92"  class="scanline" stroke-width="1"/>
    <line x1="140" y1="96"  x2="540" y2="96"  class="scanline" stroke-width="1"/>
    <line x1="140" y1="100" x2="540" y2="100" class="scanline" stroke-width="1"/>
    <line x1="140" y1="104" x2="540" y2="104" class="scanline" stroke-width="1"/>
    <line x1="140" y1="108" x2="540" y2="108" class="scanline" stroke-width="1"/>
    <line x1="140" y1="112" x2="540" y2="112" class="scanline" stroke-width="1"/>
    <line x1="140" y1="116" x2="540" y2="116" class="scanline" stroke-width="1"/>
    <line x1="140" y1="120" x2="540" y2="120" class="scanline" stroke-width="1"/>
    <line x1="140" y1="124" x2="540" y2="124" class="scanline" stroke-width="1"/>
    <line x1="140" y1="128" x2="540" y2="128" class="scanline" stroke-width="1"/>
    <line x1="140" y1="132" x2="540" y2="132" class="scanline" stroke-width="1"/>
    <line x1="140" y1="136" x2="540" y2="136" class="scanline" stroke-width="1"/>
    <line x1="140" y1="140" x2="540" y2="140" class="scanline" stroke-width="1"/>
    <line x1="140" y1="144" x2="540" y2="144" class="scanline" stroke-width="1"/>
    <line x1="140" y1="148" x2="540" y2="148" class="scanline" stroke-width="1"/>
    <line x1="140" y1="152" x2="540" y2="152" class="scanline" stroke-width="1"/>
    <line x1="140" y1="156" x2="540" y2="156" class="scanline" stroke-width="1"/>
    <line x1="140" y1="160" x2="540" y2="160" class="scanline" stroke-width="1"/>
    <line x1="140" y1="164" x2="540" y2="164" class="scanline" stroke-width="1"/>
    <line x1="140" y1="168" x2="540" y2="168" class="scanline" stroke-width="1"/>
    <line x1="140" y1="172" x2="540" y2="172" class="scanline" stroke-width="1"/>
    <line x1="140" y1="176" x2="540" y2="176" class="scanline" stroke-width="1"/>
    <line x1="140" y1="180" x2="540" y2="180" class="scanline" stroke-width="1"/>
    <line x1="140" y1="184" x2="540" y2="184" class="scanline" stroke-width="1"/>
    <line x1="140" y1="188" x2="540" y2="188" class="scanline" stroke-width="1"/>
    <line x1="140" y1="192" x2="540" y2="192" class="scanline" stroke-width="1"/>
    <line x1="140" y1="196" x2="540" y2="196" class="scanline" stroke-width="1"/>
    <line x1="140" y1="200" x2="540" y2="200" class="scanline" stroke-width="1"/>
    <line x1="140" y1="204" x2="540" y2="204" class="scanline" stroke-width="1"/>
    <line x1="140" y1="208" x2="540" y2="208" class="scanline" stroke-width="1"/>
    <line x1="140" y1="212" x2="540" y2="212" class="scanline" stroke-width="1"/>
    <line x1="140" y1="216" x2="540" y2="216" class="scanline" stroke-width="1"/>
    <line x1="140" y1="220" x2="540" y2="220" class="scanline" stroke-width="1"/>
    <line x1="140" y1="224" x2="540" y2="224" class="scanline" stroke-width="1"/>
    <line x1="140" y1="228" x2="540" y2="228" class="scanline" stroke-width="1"/>
    <line x1="140" y1="232" x2="540" y2="232" class="scanline" stroke-width="1"/>
    <line x1="140" y1="236" x2="540" y2="236" class="scanline" stroke-width="1"/>
    <line x1="140" y1="240" x2="540" y2="240" class="scanline" stroke-width="1"/>
    <line x1="140" y1="244" x2="540" y2="244" class="scanline" stroke-width="1"/>
    <line x1="140" y1="248" x2="540" y2="248" class="scanline" stroke-width="1"/>
    <line x1="140" y1="252" x2="540" y2="252" class="scanline" stroke-width="1"/>
    <line x1="140" y1="256" x2="540" y2="256" class="scanline" stroke-width="1"/>
    <line x1="140" y1="260" x2="540" y2="260" class="scanline" stroke-width="1"/>
    <line x1="140" y1="264" x2="540" y2="264" class="scanline" stroke-width="1"/>
    <line x1="140" y1="268" x2="540" y2="268" class="scanline" stroke-width="1"/>
    <line x1="140" y1="272" x2="540" y2="272" class="scanline" stroke-width="1"/>
    <line x1="140" y1="276" x2="540" y2="276" class="scanline" stroke-width="1"/>
    <line x1="140" y1="280" x2="540" y2="280" class="scanline" stroke-width="1"/>
    <line x1="140" y1="284" x2="540" y2="284" class="scanline" stroke-width="1"/>
    <line x1="140" y1="288" x2="540" y2="288" class="scanline" stroke-width="1"/>
    <line x1="140" y1="292" x2="540" y2="292" class="scanline" stroke-width="1"/>
    <line x1="140" y1="296" x2="540" y2="296" class="scanline" stroke-width="1"/>
  </g>

  <!-- PG block mark -->
  <rect x="196" y="46" width="88" height="64" rx="9" class="block-bg block-border" stroke-width="1.5"/>
  <!-- P -->
  <rect x="211" y="59" width="7" height="38" class="letter-p"/>
  <rect x="211" y="59" width="27" height="7" class="letter-p"/>
  <rect x="211" y="76" width="23" height="7" class="letter-p"/>
  <rect x="231" y="59" width="7" height="24" rx="3" class="letter-p"/>
  <!-- G -->
  <rect x="248" y="59" width="27" height="7" class="letter-g"/>
  <rect x="248" y="90" width="27" height="7" class="letter-g"/>
  <rect x="248" y="59" width="7" height="38" class="letter-g"/>
  <rect x="261" y="76" width="14" height="7" class="letter-g"/>
  <rect x="268" y="76" width="7" height="21" class="letter-g"/>
  <!-- pips -->
  <circle cx="255" cy="53" r="3" class="pip-dim"/>
  <circle cx="264" cy="53" r="3" class="pip-dim"/>
  <circle cx="273" cy="53" r="3" class="pip"/>

  <!-- Wordmark: just "view" in terminal green -->
  <text x="300" y="97" font-family="'Courier New', monospace" font-size="52" font-weight="700" class="wm-view" letter-spacing="-2">view</text>

  <!-- Divider -->
  <line x1="196" y1="124" x2="484" y2="124" class="divider" stroke-width="0.75"/>

  <!-- Prompt lines -->
  <text x="196" y="144" font-family="'Courier New', monospace" font-size="13" class="prompt-sym">$</text>
  <text x="211" y="144" font-family="'Courier New', monospace" font-size="13" class="prompt-txt"> keyboard-driven postgresql browser</text>

  <text x="196" y="163" font-family="'Courier New', monospace" font-size="13" class="prompt-sym">$</text>
  <text x="211" y="163" font-family="'Courier New', monospace" font-size="13" class="prompt-txt"> pgview -url </text>
  <text x="316" y="163" font-family="'Courier New', monospace" font-size="13" fill="#74b9ff">prod.db:5432</text>
  <rect x="416" y="152" width="7" height="13" class="cursor-bar blink"/>

  <!-- Divider -->
  <line x1="196" y1="178" x2="484" y2="178" class="divider" stroke-width="0.75"/>

  <!-- Ghost table rows -->
  <text x="196" y="196" font-family="'Courier New', monospace" font-size="11" class="row-sel">▶</text>
  <text x="212" y="196" font-family="'Courier New', monospace" font-size="11" class="row-hi"> orders</text>
  <text x="328" y="196" font-family="'Courier New', monospace" font-size="11" class="prompt-txt">BASE TABLE</text>
  <text x="212" y="212" font-family="'Courier New', monospace" font-size="11" fill="#253545"> customers</text>
  <text x="328" y="212" font-family="'Courier New', monospace" font-size="11" fill="#1e2e3e">BASE TABLE</text>
  <text x="212" y="228" font-family="'Courier New', monospace" font-size="11" fill="#1a2535"> products</text>
  <text x="328" y="228" font-family="'Courier New', monospace" font-size="11" fill="#192535">BASE TABLE</text>

  <!-- Bottom bar -->
  <line x1="140" y1="254" x2="540" y2="254" class="divider" stroke-width="0.75"/>
  <text x="340" y="272" text-anchor="middle" font-family="'Courier New', monospace" font-size="10" class="badge" letter-spacing="3">MIT · GO 1.22+ · v0.5.0</text>

  <!-- Corner brackets -->
  <path d="M148 28 L148 36 L156 36" fill="none" class="bracket" stroke-width="1.5" stroke-linecap="round"/>
  <path d="M532 28 L532 36 L524 36" fill="none" class="bracket" stroke-width="1.5" stroke-linecap="round"/>
  <path d="M148 292 L148 284 L156 284" fill="none" class="bracket" stroke-width="1.5" stroke-linecap="round"/>
  <path d="M532 292 L532 284 L524 284" fill="none" class="bracket" stroke-width="1.5" stroke-linecap="round"/>
</svg>
